<svg width="1071" height="322" viewBox="0 0 1071 322" fill="none" xmlns="http://www.w3.org/2000/svg">
<g clip-path="url(#clip0_4_24)">
<path d="M891.32 320.65V61.4794H935.542V92.6486H938.151C940.47 88.0673 943.741 83.1997 947.965 78.0457C952.188 72.8099 957.902 68.3514 965.107 64.6699C972.312 60.9067 981.504 59.0251 992.684 59.0251C1007.42 59.0251 1020.72 62.7474 1032.56 70.1921C1044.48 77.5549 1053.92 88.4764 1060.88 102.957C1067.92 117.355 1071.44 135.026 1071.44 155.969C1071.44 176.666 1068 194.255 1061.13 208.735C1054.26 223.216 1044.9 234.26 1033.06 241.868C1021.21 249.476 1007.8 253.28 992.808 253.28C981.877 253.28 972.809 251.481 965.604 247.881C958.399 244.281 952.602 239.946 948.213 234.873C943.907 229.719 940.553 224.852 938.151 220.271H936.288V320.65H891.32ZM935.418 155.723C935.418 167.913 937.157 178.589 940.635 187.751C944.196 196.914 949.29 204.072 955.915 209.226C962.623 214.298 970.738 216.835 980.262 216.835C990.2 216.835 998.522 214.217 1005.23 208.981C1011.94 203.663 1016.99 196.423 1020.39 187.261C1023.86 178.016 1025.6 167.504 1025.6 155.723C1025.6 144.025 1023.9 133.635 1020.51 124.554C1017.11 115.473 1012.06 108.356 1005.35 103.202C998.647 98.048 990.282 95.471 980.262 95.471C970.656 95.471 962.498 97.9662 955.79 102.957C949.083 107.947 943.989 114.942 940.511 123.941C937.116 132.939 935.418 143.534 935.418 155.723Z" fill="#002BFF"/>
<path d="M824.597 170.694V61.4795H869.565V249.967H825.963V216.467H823.976C819.669 227.02 812.589 235.651 802.734 242.359C792.962 249.067 780.912 252.421 766.586 252.421C754.081 252.421 743.025 249.681 733.419 244.2C723.895 238.637 716.442 230.579 711.059 220.025C705.676 209.39 702.984 196.546 702.984 181.493V16.4436H725.218H747.952V174.621C747.952 186.565 751.265 196.055 757.89 203.091C764.515 210.126 773.211 213.644 783.976 213.644C790.602 213.644 797.02 212.049 803.231 208.858C809.442 205.668 814.535 200.923 818.51 194.624C822.568 188.242 824.597 180.266 824.597 170.694Z" fill="#002BFF"/>
<path d="M498.36 322V62.8293H542.583V93.9985H545.192C547.511 89.4172 550.782 84.5496 555.005 79.3956C559.229 74.1599 564.943 69.7013 572.148 66.0199C579.352 62.2567 588.545 60.3751 599.725 60.3751C614.466 60.3751 627.757 64.0974 639.6 71.542C651.525 78.9048 660.966 89.8263 667.922 104.306C674.961 118.705 678.481 136.376 678.481 157.319C678.481 178.016 675.044 195.605 668.17 210.085C661.297 224.566 651.939 235.61 640.096 243.218C628.254 250.826 614.838 254.63 599.849 254.63C588.917 254.63 579.849 252.831 572.645 249.231C565.44 245.631 559.643 241.296 555.254 236.223C550.947 231.069 547.593 226.202 545.192 221.62H543.328V322H498.36ZM542.459 157.073C542.459 169.263 544.198 179.939 547.676 189.101C551.237 198.264 556.33 205.422 562.955 210.576C569.663 215.648 577.779 218.184 587.303 218.184C597.24 218.184 605.563 215.567 612.271 210.331C618.979 205.013 624.031 197.773 627.426 188.611C630.904 179.366 632.643 168.854 632.643 157.073C632.643 145.375 630.946 134.985 627.55 125.904C624.155 116.823 619.103 109.706 612.395 104.552C605.687 99.3979 597.323 96.8209 587.303 96.8209C577.696 96.8209 569.539 99.3161 562.831 104.306C556.123 109.297 551.03 116.291 547.552 125.29C544.157 134.289 542.459 144.884 542.459 157.073Z" fill="black"/>
<path d="M393.253 254.999C374.62 254.999 358.472 250.949 344.807 242.85C331.143 234.751 320.543 223.42 313.007 208.858C305.553 194.296 301.827 177.28 301.827 157.809C301.827 138.339 305.553 121.282 313.007 106.638C320.543 91.9942 331.143 80.6228 344.807 72.5237C358.472 64.4246 374.62 60.3751 393.253 60.3751C411.887 60.3751 428.035 64.4246 441.7 72.5237C455.364 80.6228 465.923 91.9942 473.376 106.638C480.912 121.282 484.68 138.339 484.68 157.809C484.68 177.28 480.912 194.296 473.376 208.858C465.923 223.42 455.364 234.751 441.7 242.85C428.035 250.949 411.887 254.999 393.253 254.999ZM393.502 219.412C403.605 219.412 412.052 216.671 418.843 211.19C425.634 205.627 430.685 198.182 433.998 188.856C437.393 179.53 439.091 169.14 439.091 157.687C439.091 146.152 437.393 135.721 433.998 126.395C430.685 116.987 425.634 109.501 418.843 103.938C412.052 98.3753 403.605 95.5938 393.502 95.5938C383.15 95.5938 374.537 98.3753 367.664 103.938C360.873 109.501 355.78 116.987 352.385 126.395C349.072 135.721 347.416 146.152 347.416 157.687C347.416 169.14 349.072 179.53 352.385 188.856C355.78 198.182 360.873 205.627 367.664 211.19C374.537 216.671 383.15 219.412 393.502 219.412Z" fill="black"/>
<path d="M203.676 251.317V62.8293H247.278V94.244H249.265C252.744 83.3634 258.706 74.978 267.153 69.0877C275.683 63.1157 285.414 60.1296 296.345 60.1296C298.83 60.1296 301.604 60.2523 304.668 60.4978C307.815 60.6614 310.423 60.9477 312.494 61.3568V102.22C310.589 101.566 307.566 100.993 303.426 100.502C299.368 99.9297 295.434 99.6433 291.625 99.6433C283.426 99.6433 276.056 101.402 269.513 104.92C263.054 108.356 257.961 113.142 254.234 119.278C250.508 125.413 248.644 132.49 248.644 140.507V251.317H203.676Z" fill="black"/>
<path d="M78.6318 254.63C63.6425 254.63 50.2266 250.826 38.3842 243.218C26.5419 235.61 17.1839 224.566 10.3103 210.085C3.43678 195.605 0 178.016 0 157.319C0 136.376 3.47818 118.705 10.4346 104.306C17.4737 89.8262 26.9559 78.9047 38.8811 71.5419C50.8063 64.0973 64.098 60.375 78.756 60.375C89.9359 60.375 99.1283 62.2566 106.333 66.0198C113.538 69.7012 119.252 74.1598 123.476 79.3956C127.699 84.5495 130.97 89.4172 133.289 93.9985H135.152V0H180.244V251.317H136.022V221.62H133.289C130.97 226.202 127.616 231.069 123.227 236.223C118.838 241.295 113.041 245.631 105.836 249.231C98.6314 252.831 89.5632 254.63 78.6318 254.63ZM91.1781 218.184C100.702 218.184 108.817 215.648 115.525 210.576C122.233 205.422 127.326 198.264 130.805 189.101C134.283 179.939 136.022 169.263 136.022 157.073C136.022 144.884 134.283 134.289 130.805 125.29C127.409 116.291 122.358 109.297 115.65 104.306C109.025 99.3161 100.867 96.8209 91.1781 96.8209C81.1576 96.8209 72.7934 99.3979 66.0855 104.552C59.3776 109.706 54.3259 116.823 50.9306 125.904C47.5352 134.985 45.8375 145.374 45.8375 157.073C45.8375 168.854 47.5352 179.366 50.9306 188.611C54.4087 197.773 59.5018 205.013 66.2097 210.331C73.0005 215.567 81.3233 218.184 91.1781 218.184Z" fill="black"/>
</g>
<defs>
<clipPath id="clip0_4_24">
<rect width="1071" height="322" fill="white"/>
</clipPath>
</defs>
</svg>
